<?xml version="1.0" standalone="no"?>
<!DOCTYPE svg PUBLIC "-//W3C//DTD SVG 20010904//EN"
 "http://www.w3.org/TR/2001/REC-SVG-20010904/DTD/svg10.dtd">
<svg version="1.0" xmlns="http://www.w3.org/2000/svg"
 width="70.000000pt" height="70.000000pt" viewBox="0 0 70.000000 70.000000"
 preserveAspectRatio="xMidYMid meet">

<g transform="translate(0.000000,70.000000) scale(0.100000,-0.100000)"
fill="#000000" stroke="none">
<path d="M112 587 c-31 -33 -32 -117 -2 -117 16 0 20 7 20 38 0 21 5 43 12 50
18 18 402 17 416 -1 7 -8 13 -69 14 -148 3 -111 6 -134 18 -134 13 0 15 24 18
144 4 204 21 191 -258 191 -213 0 -217 0 -238 -23z"/>
<path d="M195 469 c-15 -24 17 -29 161 -27 125 3 149 5 149 18 0 13 -25 15
-152 18 -103 2 -154 -1 -158 -9z"/>
<path d="M90 257 c0 -176 -14 -167 261 -167 214 0 216 0 238 24 17 18 22 33
19 62 -4 48 -31 55 -36 9 -2 -16 -8 -36 -14 -42 -15 -18 -399 -18 -416 -1 -8
8 -12 50 -12 125 0 106 -1 113 -20 113 -19 0 -20 -7 -20 -123z"/>
<path d="M195 359 c-15 -24 17 -29 161 -27 125 3 149 5 149 18 0 13 -25 15
-152 18 -103 2 -154 -1 -158 -9z"/>
<path d="M195 249 c-15 -24 17 -29 161 -27 125 3 149 5 149 18 0 13 -25 15
-152 18 -103 2 -154 -1 -158 -9z"/>
</g>
</svg>
